# xmcd CD database file
#
# Track frame offsets:
#	150
#	33993
#	54885
#	94567
#	125573
#	165019
#	191405
#	217274
#
# Disc length: 3214 seconds
#
# Revision: 0
# Processed by: cddbd v1.5.2PL0 Copyright (c) Steve Scherf et al.
# Submitted via: CDex 1.70beta2
#
DISCID=5f0c8c08
DTITLE=Laco Deczi - Big Shot
DYEAR=2008
DGENRE=Jazz
TTITLE0=Selepka
TTITLE1=Ochun
TTITLE2=To My Mother
TTITLE3=Big Shot
TTITLE4=Memory
TTITLE5=Deryle
TTITLE6=Tumba
TTITLE7=Parnik
EXTD=YEAR: 2008
EXTT0=
EXTT1=
EXTT2=
EXTT3=
EXTT4=
EXTT5=
EXTT6=
EXTT7=
PLAYORDER=
